<?xml version="1.0" encoding="UTF-8"?>
<!--Generator: Apple Native CoreSVG 123-->
<!DOCTYPE svg
PUBLIC "-//W3C//DTD SVG 1.1//EN"
       "http://www.w3.org/Graphics/SVG/1.1/DTD/svg11.dtd">
<svg version="1.1" xmlns="http://www.w3.org/2000/svg" xmlns:xlink="http://www.w3.org/1999/xlink" width="3300" height="2200">
 <!--glyph: "uni10013E.medium", point size: 100.000000, font version: "Version 15.0d7e11", template writer version: "5"-->
 <g id="Notes">
  <rect height="2200" id="artboard" style="fill:white;opacity:1" width="3300" x="0" y="0"/>
  <line id="" style="fill:none;stroke:black;opacity:1;stroke-width:0.5;" x1="263" x2="3036" y1="292" y2="292"/>
  <text style="stroke:none;fill:black;font-family:-apple-system,&quot;SF Pro Display&quot;,&quot;SF Pro Text&quot;,Helvetica,sans-serif;font-weight:bold;" transform="matrix(1 0 0 1 263 322)">Weight/Scale Variations</text>
  <text style="stroke:none;fill:black;font-family:-apple-system,&quot;SF Pro Display&quot;,&quot;SF Pro Text&quot;,Helvetica,sans-serif;text-anchor:middle;" transform="matrix(1 0 0 1 559.711 322)">Ultralight</text>
  <text style="stroke:none;fill:black;font-family:-apple-system,&quot;SF Pro Display&quot;,&quot;SF Pro Text&quot;,Helvetica,sans-serif;text-anchor:middle;" transform="matrix(1 0 0 1 856.422 322)">Thin</text>
  <text style="stroke:none;fill:black;font-family:-apple-system,&quot;SF Pro Display&quot;,&quot;SF Pro Text&quot;,Helvetica,sans-serif;text-anchor:middle;" transform="matrix(1 0 0 1 1153.13 322)">Light</text>
  <text style="stroke:none;fill:black;font-family:-apple-system,&quot;SF Pro Display&quot;,&quot;SF Pro Text&quot;,Helvetica,sans-serif;text-anchor:middle;" transform="matrix(1 0 0 1 1449.84 322)">Regular</text>
  <text style="stroke:none;fill:black;font-family:-apple-system,&quot;SF Pro Display&quot;,&quot;SF Pro Text&quot;,Helvetica,sans-serif;text-anchor:middle;" transform="matrix(1 0 0 1 1746.56 322)">Medium</text>
  <text style="stroke:none;fill:black;font-family:-apple-system,&quot;SF Pro Display&quot;,&quot;SF Pro Text&quot;,Helvetica,sans-serif;text-anchor:middle;" transform="matrix(1 0 0 1 2043.27 322)">Semibold</text>
  <text style="stroke:none;fill:black;font-family:-apple-system,&quot;SF Pro Display&quot;,&quot;SF Pro Text&quot;,Helvetica,sans-serif;text-anchor:middle;" transform="matrix(1 0 0 1 2339.98 322)">Bold</text>
  <text style="stroke:none;fill:black;font-family:-apple-system,&quot;SF Pro Display&quot;,&quot;SF Pro Text&quot;,Helvetica,sans-serif;text-anchor:middle;" transform="matrix(1 0 0 1 2636.69 322)">Heavy</text>
  <text style="stroke:none;fill:black;font-family:-apple-system,&quot;SF Pro Display&quot;,&quot;SF Pro Text&quot;,Helvetica,sans-serif;text-anchor:middle;" transform="matrix(1 0 0 1 2933.4 322)">Black</text>
  <line id="" style="fill:none;stroke:black;opacity:1;stroke-width:0.5;" x1="263" x2="3036" y1="1903" y2="1903"/>
  <g id="" transform="matrix(1 0 0 1 263 1933)">
   <path d="M 9.24805 0.830078 C 13.5547 0.830078 17.1387 -2.74414 17.1387 -7.05078 C 17.1387 -11.3574 13.5449 -14.9316 9.23828 -14.9316 C 4.94141 -14.9316 1.36719 -11.3574 1.36719 -7.05078 C 1.36719 -2.74414 4.95117 0.830078 9.24805 0.830078 Z M 9.24805 -0.654297 C 5.70312 -0.654297 2.87109 -3.49609 2.87109 -7.05078 C 2.87109 -10.6055 5.69336 -13.4473 9.23828 -13.4473 C 12.793 -13.4473 15.6348 -10.6055 15.6445 -7.05078 C 15.6543 -3.49609 12.8027 -0.654297 9.24805 -0.654297 Z M 9.22852 -3.42773 C 9.69727 -3.42773 9.9707 -3.74023 9.9707 -4.25781 L 9.9707 -6.31836 L 12.1973 -6.31836 C 12.6953 -6.31836 13.0371 -6.57227 13.0371 -7.04102 C 13.0371 -7.51953 12.7148 -7.7832 12.1973 -7.7832 L 9.9707 -7.7832 L 9.9707 -10.0098 C 9.9707 -10.5273 9.69727 -10.8496 9.22852 -10.8496 C 8.75977 -10.8496 8.50586 -10.5078 8.50586 -10.0098 L 8.50586 -7.7832 L 6.29883 -7.7832 C 5.78125 -7.7832 5.44922 -7.51953 5.44922 -7.04102 C 5.44922 -6.57227 5.80078 -6.31836 6.29883 -6.31836 L 8.50586 -6.31836 L 8.50586 -4.25781 C 8.50586 -3.75977 8.75977 -3.42773 9.22852 -3.42773 Z"/>
  </g>
  <g id="" transform="matrix(1 0 0 1 281.506 1933)">
   <path d="M 11.709 2.91016 C 17.1582 2.91016 21.6699 -1.60156 21.6699 -7.05078 C 21.6699 -12.4902 17.1484 -17.0117 11.6992 -17.0117 C 6.25977 -17.0117 1.74805 -12.4902 1.74805 -7.05078 C 1.74805 -1.60156 6.26953 2.91016 11.709 2.91016 Z M 11.709 1.25 C 7.09961 1.25 3.41797 -2.44141 3.41797 -7.05078 C 3.41797 -11.6504 7.08984 -15.3516 11.6992 -15.3516 C 16.3086 -15.3516 20 -11.6504 20.0098 -7.05078 C 20.0195 -2.44141 16.3184 1.25 11.709 1.25 Z M 11.6895 -2.41211 C 12.207 -2.41211 12.5195 -2.77344 12.5195 -3.33984 L 12.5195 -6.23047 L 15.5762 -6.23047 C 16.123 -6.23047 16.5039 -6.51367 16.5039 -7.03125 C 16.5039 -7.55859 16.1426 -7.86133 15.5762 -7.86133 L 12.5195 -7.86133 L 12.5195 -10.9277 C 12.5195 -11.5039 12.207 -11.8555 11.6895 -11.8555 C 11.1719 -11.8555 10.8789 -11.4844 10.8789 -10.9277 L 10.8789 -7.86133 L 7.83203 -7.86133 C 7.26562 -7.86133 6.89453 -7.55859 6.89453 -7.03125 C 6.89453 -6.51367 7.28516 -6.23047 7.83203 -6.23047 L 10.8789 -6.23047 L 10.8789 -3.33984 C 10.8789 -2.79297 11.1719 -2.41211 11.6895 -2.41211 Z"/>
  </g>
  <g id="" transform="matrix(1 0 0 1 304.924 1933)">
   <path d="M 14.9707 5.67383 C 21.9336 5.67383 27.6953 -0.078125 27.6953 -7.04102 C 27.6953 -14.0039 21.9238 -19.7559 14.9609 -19.7559 C 8.00781 -19.7559 2.25586 -14.0039 2.25586 -7.04102 C 2.25586 -0.078125 8.01758 5.67383 14.9707 5.67383 Z M 14.9707 3.85742 C 8.93555 3.85742 4.08203 -1.00586 4.08203 -7.04102 C 4.08203 -13.0762 8.92578 -17.9395 14.9609 -17.9395 C 21.0059 -17.9395 25.8594 -13.0762 25.8691 -7.04102 C 25.8789 -1.00586 21.0156 3.85742 14.9707 3.85742 Z M 14.9512 -1.06445 C 15.5176 -1.06445 15.8691 -1.45508 15.8691 -2.06055 L 15.8691 -6.13281 L 20.1074 -6.13281 C 20.6934 -6.13281 21.1133 -6.46484 21.1133 -7.02148 C 21.1133 -7.59766 20.7227 -7.93945 20.1074 -7.93945 L 15.8691 -7.93945 L 15.8691 -12.1875 C 15.8691 -12.8027 15.5176 -13.1934 14.9512 -13.1934 C 14.3848 -13.1934 14.0625 -12.7832 14.0625 -12.1875 L 14.0625 -7.93945 L 9.83398 -7.93945 C 9.21875 -7.93945 8.80859 -7.59766 8.80859 -7.02148 C 8.80859 -6.46484 9.23828 -6.13281 9.83398 -6.13281 L 14.0625 -6.13281 L 14.0625 -2.06055 C 14.0625 -1.47461 14.3848 -1.06445 14.9512 -1.06445 Z"/>
  </g>
  <text style="stroke:none;fill:black;font-family:-apple-system,&quot;SF Pro Display&quot;,&quot;SF Pro Text&quot;,Helvetica,sans-serif;font-weight:bold;" transform="matrix(1 0 0 1 263 1953)">Design Variations</text>
  <text style="stroke:none;fill:black;font-family:-apple-system,&quot;SF Pro Display&quot;,&quot;SF Pro Text&quot;,Helvetica,sans-serif;" transform="matrix(1 0 0 1 263 1971)">Symbols are supported in up to nine weights and three scales.</text>
  <text style="stroke:none;fill:black;font-family:-apple-system,&quot;SF Pro Display&quot;,&quot;SF Pro Text&quot;,Helvetica,sans-serif;" transform="matrix(1 0 0 1 263 1989)">For optimal layout with text and other symbols, vertically align</text>
  <text style="stroke:none;fill:black;font-family:-apple-system,&quot;SF Pro Display&quot;,&quot;SF Pro Text&quot;,Helvetica,sans-serif;" transform="matrix(1 0 0 1 263 2007)">symbols with the adjacent text.</text>
  <rect height="14" id="" style="fill:#00AEEF;stroke:none;opacity:0.4;" width="3" x="776" y="1919"/>
  <g id="" transform="matrix(1 0 0 1 779 1933)">
   <path d="M 10.5273 0 L 12.373 0 L 7.17773 -14.0918 L 5.43945 -14.0918 L 0.244141 0 L 2.08984 0 L 3.50586 -4.0332 L 9.11133 -4.0332 Z M 6.2793 -11.9531 L 6.33789 -11.9531 L 8.59375 -5.52734 L 4.02344 -5.52734 Z"/>
  </g>
  <rect height="14" id="" style="fill:#00AEEF;stroke:none;opacity:0.4;" width="3" x="791.617" y="1919"/>
  <text style="stroke:none;fill:black;font-family:-apple-system,&quot;SF Pro Display&quot;,&quot;SF Pro Text&quot;,Helvetica,sans-serif;font-weight:bold;" transform="matrix(1 0 0 1 776 1953)">Margins</text>
  <text style="stroke:none;fill:black;font-family:-apple-system,&quot;SF Pro Display&quot;,&quot;SF Pro Text&quot;,Helvetica,sans-serif;" transform="matrix(1 0 0 1 776 1971)">Leading and trailing margins on the left and right side of each symbol</text>
  <text style="stroke:none;fill:black;font-family:-apple-system,&quot;SF Pro Display&quot;,&quot;SF Pro Text&quot;,Helvetica,sans-serif;" transform="matrix(1 0 0 1 776 1989)">can be adjusted by modifying the width of the blue rectangles.</text>
  <text style="stroke:none;fill:black;font-family:-apple-system,&quot;SF Pro Display&quot;,&quot;SF Pro Text&quot;,Helvetica,sans-serif;" transform="matrix(1 0 0 1 776 2007)">Modifications are automatically applied proportionally to all</text>
  <text style="stroke:none;fill:black;font-family:-apple-system,&quot;SF Pro Display&quot;,&quot;SF Pro Text&quot;,Helvetica,sans-serif;" transform="matrix(1 0 0 1 776 2025)">scales and weights.</text>
  <g id="" transform="matrix(1 0 0 1 1289 1933)">
   <path d="M 2.83203 3.11523 L 4.375 4.6582 C 5.22461 5.48828 6.19141 5.41992 7.06055 4.46289 L 17.2754 -6.66016 C 17.7051 -6.36719 18.0957 -6.37695 18.5645 -6.47461 L 19.6094 -6.68945 L 20.3027 -5.99609 L 20.2539 -5.47852 C 20.1855 -4.95117 20.3516 -4.53125 20.8496 -4.0332 L 21.6602 -3.22266 C 22.168 -2.71484 22.8223 -2.68555 23.3008 -3.16406 L 26.5527 -6.41602 C 27.0312 -6.89453 27.0117 -7.54883 26.5039 -8.05664 L 25.6836 -8.87695 C 25.1855 -9.375 24.7754 -9.55078 24.2383 -9.47266 L 23.7109 -9.41406 L 23.0566 -10.0781 L 23.3398 -11.2207 C 23.4863 -11.7871 23.3398 -12.2559 22.7148 -12.8613 L 20.3027 -15.2539 C 16.7578 -18.7793 12.2266 -18.6719 9.11133 -15.5371 C 8.69141 -15.1074 8.64258 -14.5215 8.91602 -14.0918 C 9.15039 -13.7207 9.62891 -13.4961 10.2734 -13.6621 C 11.7871 -14.043 13.3008 -13.9258 14.7852 -12.9199 L 14.1602 -11.3379 C 13.9258 -10.752 13.9453 -10.2734 14.1797 -9.83398 L 3.01758 0.439453 C 2.08008 1.30859 1.97266 2.25586 2.83203 3.11523 Z M 10.6738 -15.1465 C 13.3398 -17.1387 16.6504 -16.8262 19.0527 -14.4141 L 21.6797 -11.8066 C 21.9141 -11.5723 21.9434 -11.3867 21.8848 -11.0938 L 21.5039 -9.53125 L 23.0762 -7.95898 L 24.043 -8.04688 C 24.3262 -8.07617 24.4141 -8.05664 24.6387 -7.83203 L 25.2637 -7.20703 L 22.5098 -4.46289 L 21.8848 -5.07812 C 21.6602 -5.30273 21.6406 -5.40039 21.6699 -5.68359 L 21.7578 -6.64062 L 20.1953 -8.20312 L 18.5742 -7.89062 C 18.291 -7.83203 18.1445 -7.83203 17.9102 -8.07617 L 15.7324 -10.2539 C 15.5078 -10.4883 15.4785 -10.625 15.6055 -10.9473 L 16.5527 -13.2227 C 14.9512 -14.7559 12.8418 -15.6055 10.8008 -14.9512 C 10.7129 -14.9219 10.6445 -14.9414 10.6152 -14.9805 C 10.5859 -15.0293 10.5859 -15.0781 10.6738 -15.1465 Z M 4.10156 2.41211 C 3.61328 1.91406 3.78906 1.61133 4.12109 1.30859 L 15.0781 -8.80859 L 16.3086 -7.57812 L 6.15234 3.34961 C 5.84961 3.68164 5.46875 3.7793 5.06836 3.37891 Z"/>
  </g>
  <text style="stroke:none;fill:black;font-family:-apple-system,&quot;SF Pro Display&quot;,&quot;SF Pro Text&quot;,Helvetica,sans-serif;font-weight:bold;" transform="matrix(1 0 0 1 1289 1953)">Exporting</text>
  <text style="stroke:none;fill:black;font-family:-apple-system,&quot;SF Pro Display&quot;,&quot;SF Pro Text&quot;,Helvetica,sans-serif;" transform="matrix(1 0 0 1 1289 1971)">Symbols should be outlined when exporting to ensure the</text>
  <text style="stroke:none;fill:black;font-family:-apple-system,&quot;SF Pro Display&quot;,&quot;SF Pro Text&quot;,Helvetica,sans-serif;" transform="matrix(1 0 0 1 1289 1989)">design is preserved when submitting to Xcode.</text>
  <text id="template-version" style="stroke:none;fill:black;font-family:-apple-system,&quot;SF Pro Display&quot;,&quot;SF Pro Text&quot;,Helvetica,sans-serif;text-anchor:end;" transform="matrix(1 0 0 1 3036 1933)">Template v.1.0</text>
  <text style="stroke:none;fill:black;font-family:-apple-system,&quot;SF Pro Display&quot;,&quot;SF Pro Text&quot;,Helvetica,sans-serif;text-anchor:end;" transform="matrix(1 0 0 1 3036 1951)">Generated from arrow.left.and.right</text>
  <text style="stroke:none;fill:black;font-family:-apple-system,&quot;SF Pro Display&quot;,&quot;SF Pro Text&quot;,Helvetica,sans-serif;text-anchor:end;" transform="matrix(1 0 0 1 3036 1969)">Typeset at 100 points</text>
  <text style="stroke:none;fill:black;font-family:-apple-system,&quot;SF Pro Display&quot;,&quot;SF Pro Text&quot;,Helvetica,sans-serif;" transform="matrix(1 0 0 1 263 726)">Small</text>
  <text style="stroke:none;fill:black;font-family:-apple-system,&quot;SF Pro Display&quot;,&quot;SF Pro Text&quot;,Helvetica,sans-serif;" transform="matrix(1 0 0 1 263 1156)">Medium</text>
  <text style="stroke:none;fill:black;font-family:-apple-system,&quot;SF Pro Display&quot;,&quot;SF Pro Text&quot;,Helvetica,sans-serif;" transform="matrix(1 0 0 1 263 1586)">Large</text>
 </g>
 <g id="Guides">
  <g id="H-reference" style="fill:#27AAE1;stroke:none;" transform="matrix(1 0 0 1 339 696)">
   <path d="M 54.9316 0 L 57.666 0 L 30.5664 -70.459 L 28.0762 -70.459 L 0.976562 0 L 3.66211 0 L 12.9395 -24.4629 L 45.7031 -24.4629 Z M 29.1992 -67.0898 L 29.4434 -67.0898 L 44.8242 -26.709 L 13.8184 -26.709 Z"/>
  </g>
  <line id="Baseline-S" style="fill:none;stroke:#27AAE1;opacity:1;stroke-width:0.577;" x1="263" x2="3036" y1="696" y2="696"/>
  <line id="Capline-S" style="fill:none;stroke:#27AAE1;opacity:1;stroke-width:0.577;" x1="263" x2="3036" y1="625.541" y2="625.541"/>
  <g id="H-reference" style="fill:#27AAE1;stroke:none;" transform="matrix(1 0 0 1 339 1126)">
   <path d="M 54.9316 0 L 57.666 0 L 30.5664 -70.459 L 28.0762 -70.459 L 0.976562 0 L 3.66211 0 L 12.9395 -24.4629 L 45.7031 -24.4629 Z M 29.1992 -67.0898 L 29.4434 -67.0898 L 44.8242 -26.709 L 13.8184 -26.709 Z"/>
  </g>
  <line id="Baseline-M" style="fill:none;stroke:#27AAE1;opacity:1;stroke-width:0.577;" x1="263" x2="3036" y1="1126" y2="1126"/>
  <line id="Capline-M" style="fill:none;stroke:#27AAE1;opacity:1;stroke-width:0.577;" x1="263" x2="3036" y1="1055.54" y2="1055.54"/>
  <g id="H-reference" style="fill:#27AAE1;stroke:none;" transform="matrix(1 0 0 1 339 1556)">
   <path d="M 54.9316 0 L 57.666 0 L 30.5664 -70.459 L 28.0762 -70.459 L 0.976562 0 L 3.66211 0 L 12.9395 -24.4629 L 45.7031 -24.4629 Z M 29.1992 -67.0898 L 29.4434 -67.0898 L 44.8242 -26.709 L 13.8184 -26.709 Z"/>
  </g>
  <line id="Baseline-L" style="fill:none;stroke:#27AAE1;opacity:1;stroke-width:0.577;" x1="263" x2="3036" y1="1556" y2="1556"/>
  <line id="Capline-L" style="fill:none;stroke:#27AAE1;opacity:1;stroke-width:0.577;" x1="263" x2="3036" y1="1485.54" y2="1485.54"/>
  <rect height="119.336" id="left-margin" style="fill:#00AEEF;stroke:none;opacity:0.4;" width="12.4512" x="1389.3" y="1030.79"/>
  <rect height="119.336" id="right-margin" style="fill:#00AEEF;stroke:none;opacity:0.4;" width="12.4512" x="1497.94" y="1030.79"/>
 </g>
 <g id="Symbols">
  <g id="Black-L" transform="matrix(1 0 0 1 2848.07 1556)">
   <path d="M 16.0645 -36.9141 C 16.0645 -34.0332 17.1875 -31.0547 19.1406 -29.1504 L 55.0293 6.49414 C 57.1289 8.59375 59.8633 9.7168 62.5488 9.7168 C 68.6035 9.7168 72.7539 5.41992 72.7539 -0.244141 C 72.7539 -3.51562 71.2891 -5.85938 69.2871 -7.76367 L 55.8105 -20.9961 L 48.4375 -26.9531 L 61.2305 -26.3672 L 109.473 -26.3672 L 122.266 -26.9531 L 114.893 -20.9961 L 101.367 -7.76367 C 99.4141 -5.85938 97.9492 -3.51562 97.9492 -0.244141 C 97.9492 5.41992 102.051 9.7168 108.105 9.7168 C 110.84 9.7168 113.525 8.59375 115.674 6.49414 L 151.562 -29.1504 C 153.467 -31.0547 154.59 -34.0332 154.59 -36.9141 C 154.59 -39.7461 153.467 -42.7734 151.562 -44.6289 L 115.674 -80.2246 C 113.525 -82.3242 110.84 -83.4961 108.105 -83.4961 C 102.051 -83.4961 97.9492 -79.1504 97.9492 -73.4863 C 97.9492 -70.2148 99.4141 -67.8711 101.367 -65.9668 L 114.893 -52.7832 L 122.266 -46.8262 L 109.473 -47.4609 L 61.2305 -47.4609 L 48.4375 -46.8262 L 55.8105 -52.7832 L 69.2871 -65.9668 C 71.2891 -67.8711 72.7539 -70.2148 72.7539 -73.4863 C 72.7539 -79.1504 68.6035 -83.4961 62.5488 -83.4961 C 59.8633 -83.4961 57.1289 -82.3242 55.0293 -80.2246 L 19.1406 -44.6289 C 17.1875 -42.7734 16.0645 -39.7461 16.0645 -36.9141 Z"/>
  </g>
  <g id="Heavy-L" transform="matrix(1 0 0 1 2553.27 1556)">
   <path d="M 16.0645 -36.8164 C 16.0645 -34.3262 17.041 -31.7383 18.7988 -30.0293 L 54.8828 5.71289 C 56.6895 7.56836 59.082 8.59375 61.4258 8.59375 C 66.748 8.59375 70.3613 4.83398 70.3613 -0.195312 C 70.3613 -2.97852 69.0918 -5.0293 67.4316 -6.68945 L 52.6855 -21.1426 L 44.1895 -28.2227 L 57.373 -27.6367 L 109.521 -27.6367 L 122.656 -28.2227 L 114.16 -21.1426 L 99.4629 -6.68945 C 97.7539 -5.0293 96.5332 -2.97852 96.5332 -0.195312 C 96.5332 4.83398 100.098 8.59375 105.42 8.59375 C 107.764 8.59375 110.156 7.56836 111.963 5.71289 L 148.096 -30.0293 C 149.805 -31.7383 150.781 -34.3262 150.781 -36.8164 C 150.781 -39.3066 149.805 -41.8945 148.096 -43.5547 L 111.963 -79.2969 C 110.156 -81.1523 107.764 -82.1289 105.42 -82.1289 C 100.098 -82.1289 96.5332 -78.418 96.5332 -73.3887 C 96.5332 -70.5566 97.7539 -68.5547 99.4629 -66.8945 L 114.16 -52.4902 L 122.656 -45.4102 L 109.521 -45.9961 L 57.373 -45.9961 L 44.1895 -45.4102 L 52.6855 -52.4902 L 67.4316 -66.8945 C 69.1406 -68.5547 70.3613 -70.5566 70.3613 -73.3887 C 70.3613 -78.418 66.748 -82.1289 61.4746 -82.1289 C 59.082 -82.1289 56.6895 -81.1523 54.8828 -79.2969 L 18.7988 -43.5547 C 17.041 -41.8945 16.0645 -39.3066 16.0645 -36.8164 Z"/>
  </g>
  <g id="Bold-L" transform="matrix(1 0 0 1 2258.68 1556)">
   <path d="M 16.0645 -36.7188 C 16.0645 -34.668 16.8945 -32.5195 18.4082 -31.0547 L 54.7363 4.88281 C 56.25 6.39648 58.252 7.27539 60.2051 7.27539 C 64.6484 7.27539 67.6758 4.15039 67.6758 -0.0976562 C 67.6758 -2.39258 66.6992 -4.10156 65.2832 -5.46875 L 49.2188 -21.2402 L 39.4531 -29.6387 L 53.0762 -29.0527 L 109.57 -29.0527 L 123.145 -29.6387 L 113.379 -21.2402 L 97.2656 -5.46875 C 95.8984 -4.10156 94.9219 -2.39258 94.9219 -0.0976562 C 94.9219 4.15039 97.9492 7.27539 102.393 7.27539 C 104.346 7.27539 106.348 6.39648 107.861 4.88281 L 144.238 -31.0547 C 145.703 -32.5195 146.533 -34.6191 146.533 -36.7188 C 146.533 -38.8184 145.703 -40.918 144.238 -42.3828 L 107.861 -78.3203 C 106.396 -79.834 104.346 -80.6641 102.393 -80.6641 C 97.9492 -80.6641 94.9219 -77.5391 94.9219 -73.3398 C 94.9219 -70.9961 95.8984 -69.2871 97.2656 -67.9199 L 113.379 -52.1973 L 123.145 -43.7988 L 109.57 -44.3848 L 53.0762 -44.3848 L 39.502 -43.7988 L 49.2188 -52.1973 L 65.332 -67.9199 C 66.6992 -69.2871 67.6758 -70.9961 67.6758 -73.3398 C 67.6758 -77.5391 64.6484 -80.6641 60.2051 -80.6641 C 58.252 -80.6641 56.25 -79.834 54.7363 -78.3203 L 18.4082 -42.3828 C 16.8945 -40.918 16.0645 -38.7695 16.0645 -36.7188 Z"/>
  </g>
  <g id="Semibold-L" transform="matrix(1 0 0 1 1963.43 1556)">
   <path d="M 16.0645 -36.6699 C 16.0645 -34.8633 16.748 -33.0566 18.1152 -31.7871 L 54.6387 4.3457 C 55.9082 5.61523 57.666 6.34766 59.375 6.34766 C 63.2324 6.34766 65.8203 3.66211 65.8203 0 C 65.8203 -2.00195 65.0391 -3.4668 63.8184 -4.63867 L 46.8262 -21.3379 L 36.2305 -30.6152 L 50.0977 -30.0781 L 109.619 -30.0781 L 123.438 -30.6152 L 112.842 -21.3379 L 95.8008 -4.63867 C 94.6289 -3.4668 93.8477 -2.00195 93.8477 0 C 93.8477 3.66211 96.4355 6.34766 100.293 6.34766 C 101.953 6.34766 103.76 5.61523 105.029 4.3457 L 141.553 -31.7871 C 142.871 -33.0566 143.604 -34.8633 143.604 -36.6699 C 143.604 -38.4766 142.871 -40.2344 141.553 -41.5527 L 105.078 -77.5879 C 103.76 -78.9062 101.953 -79.6387 100.293 -79.6387 C 96.4355 -79.6387 93.8477 -76.9531 93.8477 -73.2422 C 93.8477 -71.2891 94.6289 -69.8242 95.8008 -68.6523 L 112.842 -51.9531 L 123.438 -42.6758 L 109.619 -43.2129 L 50.0977 -43.2129 L 36.2305 -42.6758 L 46.8262 -51.9531 L 63.8672 -68.6523 C 65.0391 -69.8242 65.8203 -71.2891 65.8203 -73.2422 C 65.8203 -76.9531 63.2324 -79.6387 59.375 -79.6387 C 57.666 -79.6387 55.9082 -78.9062 54.6387 -77.5879 L 18.1152 -41.5527 C 16.748 -40.2344 16.0645 -38.4277 16.0645 -36.6699 Z"/>
  </g>
  <g id="Medium-L" transform="matrix(1 0 0 1 1667.84 1556)">
   <path d="M 16.0645 -36.6211 C 16.0645 -35.0098 16.6992 -33.4473 17.9199 -32.2754 L 54.541 3.90625 C 55.6641 5.0293 57.2754 5.66406 58.6914 5.66406 C 62.1094 5.66406 64.4043 3.32031 64.4043 0.0488281 C 64.4043 -1.66016 63.7695 -2.97852 62.7441 -4.00391 L 45.0195 -21.3867 L 33.7402 -31.3477 L 47.8516 -30.8105 L 109.619 -30.8105 L 123.682 -31.3477 L 112.451 -21.3867 L 94.6777 -4.00391 C 93.6523 -2.97852 93.0176 -1.66016 93.0176 0.0488281 C 93.0176 3.32031 95.2637 5.66406 98.6816 5.66406 C 100.146 5.66406 101.758 5.0293 102.881 3.90625 L 139.551 -32.2754 C 140.771 -33.4473 141.357 -35.0098 141.357 -36.6211 C 141.357 -38.1836 140.771 -39.7461 139.551 -40.918 L 102.93 -77.0996 C 101.807 -78.2227 100.195 -78.8574 98.7305 -78.8574 C 95.3125 -78.8574 93.0176 -76.4648 93.0176 -73.2422 C 93.0176 -71.5332 93.6523 -70.2148 94.6777 -69.1895 L 112.451 -51.8066 L 123.682 -41.8457 L 109.619 -42.3828 L 47.8516 -42.3828 L 33.7891 -41.8457 L 45.0195 -51.8066 L 62.7441 -69.1895 C 63.8184 -70.2148 64.4531 -71.5332 64.4531 -73.2422 C 64.4531 -76.4648 62.1094 -78.8574 58.7402 -78.8574 C 57.2754 -78.8574 55.6641 -78.2227 54.541 -77.0996 L 17.9199 -40.918 C 16.6992 -39.7461 16.0645 -38.1836 16.0645 -36.6211 Z"/>
  </g>
  <g id="Regular-L" transform="matrix(1 0 0 1 1372.57 1556)">
   <path d="M 16.0645 -36.5234 C 16.0645 -35.2539 16.5527 -33.9844 17.627 -33.0078 L 54.4434 3.32031 C 55.3711 4.24805 56.6895 4.78516 57.8613 4.78516 C 60.6934 4.78516 62.5977 2.83203 62.5977 0.0976562 C 62.5977 -1.26953 62.1094 -2.34375 61.2793 -3.17383 L 42.6758 -21.4844 L 30.5176 -32.2754 L 44.873 -31.7871 L 109.668 -31.7871 L 124.023 -32.2754 L 111.914 -21.4844 L 93.2129 -3.17383 C 92.3828 -2.34375 91.8945 -1.26953 91.8945 0.0976562 C 91.8945 2.83203 93.7988 4.78516 96.6309 4.78516 C 97.8027 4.78516 99.1699 4.24805 100.098 3.32031 L 136.914 -33.0078 C 137.939 -33.9844 138.477 -35.2051 138.477 -36.5234 C 138.477 -37.8418 137.939 -39.0625 136.914 -40.0879 L 100.098 -76.3672 C 99.2188 -77.2949 97.8516 -77.8809 96.6797 -77.8809 C 93.8477 -77.8809 91.9434 -75.8789 91.9434 -73.1445 C 91.9434 -71.7773 92.3828 -70.7031 93.2129 -69.873 L 111.914 -51.5625 L 124.023 -40.7715 L 109.668 -41.2598 L 44.873 -41.2598 L 30.5664 -40.7715 L 42.6758 -51.5625 L 61.3281 -69.873 C 62.1582 -70.7031 62.5977 -71.7773 62.5977 -73.1445 C 62.5977 -75.8789 60.6934 -77.8809 57.9102 -77.8809 C 56.6895 -77.8809 55.3711 -77.2949 54.4434 -76.3672 L 17.627 -40.0879 C 16.5527 -39.0625 16.0645 -37.8418 16.0645 -36.5234 Z"/>
  </g>
  <g id="Light-L" transform="matrix(1 0 0 1 1077.03 1556)">
   <path d="M 16.0645 -36.6699 C 16.0645 -35.6934 16.4551 -34.7656 17.2363 -34.0332 L 54.1504 2.68555 C 54.834 3.36914 55.7617 3.80859 56.6895 3.80859 C 58.8379 3.80859 60.2539 2.29492 60.2539 0.292969 C 60.2539 -0.732422 59.9121 -1.61133 59.2773 -2.19727 L 39.5508 -21.7773 L 26.9043 -33.4961 L 40.918 -33.1055 L 111.279 -33.1055 L 125.244 -33.4961 L 112.695 -21.7773 L 92.8223 -2.19727 C 92.2363 -1.61133 91.8945 -0.732422 91.8945 0.292969 C 91.8945 2.29492 93.3105 3.80859 95.459 3.80859 C 96.3379 3.80859 97.3145 3.36914 97.998 2.68555 L 134.961 -34.0332 C 135.742 -34.7656 136.133 -35.6445 136.133 -36.6699 C 136.133 -37.6465 135.742 -38.5254 134.961 -39.3066 L 98.0469 -76.0254 C 97.3633 -76.709 96.3867 -77.0996 95.5078 -77.0996 C 93.3594 -77.0996 91.9434 -75.6348 91.9434 -73.6328 C 91.9434 -72.5586 92.2363 -71.7285 92.8223 -71.0938 L 112.695 -51.5137 L 125.244 -39.8438 L 111.279 -40.1855 L 40.918 -40.1855 L 26.9531 -39.8438 L 39.5508 -51.5137 L 59.3262 -71.0938 C 59.9609 -71.7285 60.3027 -72.5586 60.3027 -73.6328 C 60.3027 -75.6348 58.8379 -77.0996 56.7383 -77.0996 C 55.7617 -77.0996 54.834 -76.709 54.1504 -76.0254 L 17.2363 -39.3066 C 16.4551 -38.5254 16.0645 -37.5977 16.0645 -36.6699 Z"/>
  </g>
  <g id="Thin-L" transform="matrix(1 0 0 1 781.886 1556)">
   <path d="M 16.0645 -36.8164 C 16.0645 -36.3281 16.2598 -35.791 16.6992 -35.4004 L 53.8086 1.85547 C 54.1992 2.24609 54.5898 2.49023 55.1758 2.49023 C 56.3477 2.49023 57.1777 1.61133 57.1777 0.537109 C 57.1777 -0.0488281 56.9824 -0.634766 56.6406 -0.927734 L 35.4004 -22.2168 L 22.168 -35.1074 L 35.6934 -34.8633 L 113.428 -34.8633 L 126.904 -35.1074 L 113.721 -22.2168 L 92.334 -0.927734 C 92.041 -0.634766 91.8457 -0.0488281 91.8457 0.537109 C 91.8457 1.61133 92.627 2.49023 93.8477 2.49023 C 94.4336 2.49023 94.873 2.24609 95.2637 1.85547 L 132.373 -35.4004 C 132.812 -35.791 133.008 -36.2305 133.008 -36.8164 C 133.008 -37.4023 132.812 -37.8418 132.373 -38.2812 L 95.3613 -75.5371 C 94.9707 -75.9277 94.4824 -76.123 93.9453 -76.123 C 92.7246 -76.123 91.8945 -75.2441 91.8945 -74.2188 C 91.8945 -73.584 92.041 -73.0469 92.334 -72.7051 L 113.721 -51.4648 L 126.904 -38.5742 L 113.428 -38.7695 L 35.6934 -38.7695 L 22.2168 -38.5742 L 35.4004 -51.4648 L 56.7383 -72.7051 C 57.0312 -73.0469 57.2266 -73.584 57.2266 -74.2188 C 57.2266 -75.2441 56.3477 -76.123 55.2246 -76.123 C 54.5898 -76.123 54.1992 -75.9277 53.8086 -75.5371 L 16.6992 -38.2812 C 16.2598 -37.8418 16.0645 -37.3535 16.0645 -36.8164 Z"/>
  </g>
  <g id="Ultralight-L" transform="matrix(1 0 0 1 485.956 1556)">
   <path d="M 16.0645 -36.9141 C 16.0645 -36.6211 16.1621 -36.3281 16.4062 -36.084 L 53.6133 1.41602 C 53.8574 1.70898 53.9551 1.80664 54.3457 1.80664 C 55.0781 1.80664 55.6152 1.2207 55.6152 0.634766 C 55.6152 0.292969 55.4688 -0.146484 55.3223 -0.292969 L 33.3008 -22.4121 L 19.7266 -35.8887 L 33.0078 -35.791 L 114.551 -35.791 L 127.783 -35.8887 L 114.258 -22.4121 L 92.0898 -0.292969 C 91.9434 -0.146484 91.7969 0.292969 91.7969 0.634766 C 91.7969 1.2207 92.2852 1.80664 93.0176 1.80664 C 93.457 1.80664 93.6523 1.70898 93.8965 1.41602 L 131.055 -36.084 C 131.299 -36.3281 131.445 -36.5234 131.445 -36.9141 C 131.445 -37.3047 131.299 -37.5 131.055 -37.7441 L 93.9453 -75.293 C 93.7012 -75.5371 93.5059 -75.6348 93.1152 -75.6348 C 92.3828 -75.6348 91.8945 -75.0488 91.8945 -74.5117 C 91.8945 -74.1211 91.9434 -73.7305 92.0898 -73.5352 L 114.258 -51.416 L 127.783 -37.9395 L 114.551 -38.0371 L 33.0078 -38.0371 L 19.7754 -37.9395 L 33.3008 -51.416 L 55.3711 -73.5352 C 55.5664 -73.7305 55.6641 -74.1211 55.6641 -74.5117 C 55.6641 -75.0488 55.0781 -75.6348 54.4434 -75.6348 C 53.9551 -75.6348 53.8574 -75.5371 53.6133 -75.293 L 16.4062 -37.7441 C 16.1621 -37.5 16.0645 -37.207 16.0645 -36.9141 Z"/>
  </g>
  <g id="Black-M" transform="matrix(1 0 0 1 2865.31 1126)">
   <path d="M 12.4512 -36.7188 C 12.4512 -34.1797 13.4766 -31.4941 15.0879 -29.834 L 42.6758 -2.24609 C 44.5801 -0.341797 46.875 0.683594 49.3652 0.683594 C 54.6875 0.683594 58.3496 -3.17383 58.3496 -8.1543 C 58.3496 -11.1328 56.9824 -13.1836 55.2246 -14.8926 L 45.752 -24.2188 L 41.3086 -27.7344 L 50.5371 -27.3438 L 85.6445 -27.3438 L 94.873 -27.7344 L 90.4297 -24.2188 L 80.957 -14.8926 C 79.1992 -13.1836 77.7832 -11.1328 77.7832 -8.1543 C 77.7832 -3.17383 81.4453 0.683594 86.8164 0.683594 C 89.2578 0.683594 91.6016 -0.341797 93.457 -2.24609 L 121.045 -29.834 C 122.705 -31.4941 123.73 -34.1797 123.73 -36.7188 C 123.73 -39.209 122.705 -41.9922 121.045 -43.5547 L 93.457 -71.1426 C 91.6016 -72.998 89.2578 -74.0234 86.8164 -74.0234 C 81.4453 -74.0234 77.7832 -70.166 77.7832 -65.1855 C 77.7832 -62.2559 79.1992 -60.1562 80.957 -58.4473 L 90.4297 -49.1699 L 94.873 -45.6543 L 85.6445 -46.0938 L 50.5371 -46.0938 L 41.3086 -45.6543 L 45.752 -49.1699 L 55.2246 -58.4473 C 56.9824 -60.1562 58.3496 -62.2559 58.3496 -65.1855 C 58.3496 -70.166 54.6875 -74.0234 49.3652 -74.0234 C 46.875 -74.0234 44.5801 -72.998 42.6758 -71.1426 L 15.0879 -43.5547 C 13.4766 -41.9922 12.4512 -39.209 12.4512 -36.7188 Z"/>
  </g>
  <g id="Heavy-M" transform="matrix(1 0 0 1 2570.38 1126)">
   <path d="M 12.4512 -36.5723 C 12.4512 -34.375 13.3301 -32.0312 14.7949 -30.5664 L 42.627 -2.88086 C 44.2383 -1.26953 46.3379 -0.341797 48.4375 -0.341797 C 53.125 -0.341797 56.3477 -3.71094 56.3477 -8.10547 C 56.3477 -10.6445 55.1758 -12.5 53.6621 -13.9648 L 43.1641 -24.2676 L 37.6465 -28.8086 L 47.3633 -28.3691 L 85.2539 -28.3691 L 94.9707 -28.8086 L 89.4531 -24.2676 L 78.9551 -13.9648 C 77.3926 -12.5 76.2695 -10.6445 76.2695 -8.10547 C 76.2695 -3.71094 79.4434 -0.341797 84.1309 -0.341797 C 86.2793 -0.341797 88.3789 -1.26953 89.9902 -2.88086 L 117.773 -30.5664 C 119.287 -32.0312 120.166 -34.375 120.166 -36.5723 C 120.166 -38.7695 119.287 -41.1621 117.773 -42.5781 L 89.9902 -70.2148 C 88.3789 -71.875 86.2793 -72.7539 84.1797 -72.7539 C 79.4434 -72.7539 76.2695 -69.3848 76.2695 -64.9902 C 76.2695 -62.4512 77.3926 -60.6445 78.9551 -59.1309 L 89.4531 -48.877 L 94.9707 -44.3359 L 85.2539 -44.7754 L 47.3633 -44.7754 L 37.6465 -44.3359 L 43.1641 -48.877 L 53.6621 -59.1309 C 55.1758 -60.6445 56.3477 -62.4512 56.3477 -64.9902 C 56.3477 -69.3848 53.125 -72.7539 48.4375 -72.7539 C 46.3379 -72.7539 44.2383 -71.875 42.627 -70.2148 L 14.7949 -42.5781 C 13.3301 -41.1621 12.4512 -38.7695 12.4512 -36.5723 Z"/>
  </g>
  <g id="Bold-M" transform="matrix(1 0 0 1 2275.67 1126)">
   <path d="M 12.4512 -36.4258 C 12.4512 -34.5703 13.1836 -32.666 14.502 -31.3965 L 42.5293 -3.61328 C 43.8965 -2.24609 45.6543 -1.51367 47.4121 -1.51367 C 51.416 -1.51367 54.1016 -4.29688 54.1016 -8.05664 C 54.1016 -10.1562 53.1738 -11.6699 51.9043 -12.9395 L 40.2832 -24.3164 L 33.4961 -30.0293 L 43.7988 -29.5898 L 84.8633 -29.5898 L 95.1172 -30.0293 L 88.3301 -24.3164 L 76.709 -12.9395 C 75.4395 -11.6699 74.5117 -10.1562 74.5117 -8.05664 C 74.5117 -4.29688 77.1973 -1.51367 81.2012 -1.51367 C 82.959 -1.51367 84.7656 -2.24609 86.1328 -3.61328 L 114.111 -31.3965 C 115.43 -32.666 116.162 -34.5703 116.162 -36.4258 C 116.162 -38.2812 115.43 -40.2344 114.111 -41.5039 L 86.1328 -69.2383 C 84.7656 -70.6055 82.959 -71.3379 81.2012 -71.3379 C 77.1973 -71.3379 74.5117 -68.5547 74.5117 -64.7949 C 74.5117 -62.6953 75.4395 -61.1816 76.709 -59.9121 L 88.3301 -48.584 L 95.1172 -42.8711 L 84.8633 -43.3105 L 43.7988 -43.3105 L 33.4961 -42.8711 L 40.2832 -48.584 L 51.9043 -59.9121 C 53.1738 -61.1816 54.1016 -62.6953 54.1016 -64.7949 C 54.1016 -68.5547 51.416 -71.3379 47.4609 -71.3379 C 45.6543 -71.3379 43.8965 -70.6055 42.5293 -69.2383 L 14.502 -41.5039 C 13.1836 -40.2344 12.4512 -38.2812 12.4512 -36.4258 Z"/>
  </g>
  <g id="Semibold-M" transform="matrix(1 0 0 1 1980.33 1126)">
   <path d="M 12.4512 -36.3281 C 12.4512 -34.7168 13.0859 -33.1055 14.2578 -31.9336 L 42.4316 -4.10156 C 43.6035 -2.92969 45.2148 -2.29492 46.7285 -2.29492 C 50.1953 -2.29492 52.5391 -4.73633 52.5391 -8.00781 C 52.5391 -9.81445 51.8066 -11.1328 50.7324 -12.207 L 38.3301 -24.3652 L 30.6641 -30.8594 L 41.3086 -30.3711 L 84.5703 -30.3711 L 95.2148 -30.8594 L 87.5977 -24.3652 L 75.1465 -12.207 C 74.0723 -11.1328 73.3398 -9.81445 73.3398 -8.00781 C 73.3398 -4.73633 75.6836 -2.29492 79.1504 -2.29492 C 80.6641 -2.29492 82.2754 -2.92969 83.4473 -4.10156 L 111.621 -31.9336 C 112.793 -33.1055 113.428 -34.7168 113.428 -36.3281 C 113.428 -37.9395 112.793 -39.5996 111.621 -40.7227 L 83.4473 -68.5547 C 82.2754 -69.7266 80.6641 -70.3613 79.1504 -70.3613 C 75.6836 -70.3613 73.3398 -67.9688 73.3398 -64.6484 C 73.3398 -62.8418 74.0723 -61.5234 75.1465 -60.4492 L 87.5977 -48.3398 L 95.2148 -41.8457 L 84.5703 -42.2852 L 41.3086 -42.2852 L 30.6641 -41.8457 L 38.3301 -48.3398 L 50.7324 -60.4492 C 51.8066 -61.5234 52.5391 -62.8418 52.5391 -64.6484 C 52.5391 -67.9688 50.1953 -70.3613 46.7285 -70.3613 C 45.2148 -70.3613 43.6035 -69.7266 42.4316 -68.5547 L 14.2578 -40.7227 C 13.0859 -39.5996 12.4512 -37.9395 12.4512 -36.3281 Z"/>
  </g>
  <g id="Medium-M" transform="matrix(1 0 0 1 1684.64 1126)">
   <path d="M 12.4512 -36.2793 C 12.4512 -34.8145 13.0371 -33.3984 14.1113 -32.373 L 42.4316 -4.49219 C 43.457 -3.4668 44.873 -2.88086 46.1914 -2.88086 C 49.3164 -2.88086 51.3672 -5.0293 51.3672 -8.00781 C 51.3672 -9.57031 50.7812 -10.6934 49.8047 -11.6699 L 36.8164 -24.3652 L 28.5156 -31.4453 L 39.4531 -31.0059 L 84.3262 -31.0059 L 95.3125 -31.4453 L 87.0117 -24.3652 L 73.9746 -11.6699 C 73.0469 -10.6934 72.4121 -9.57031 72.4121 -8.00781 C 72.4121 -5.0293 74.5117 -2.88086 77.5879 -2.88086 C 78.9062 -2.88086 80.3711 -3.4668 81.3965 -4.49219 L 109.717 -32.373 C 110.791 -33.3984 111.377 -34.8145 111.377 -36.2793 C 111.377 -37.6953 110.791 -39.1113 109.717 -40.1855 L 81.3965 -68.0176 C 80.3711 -69.043 78.9062 -69.6289 77.5879 -69.6289 C 74.5117 -69.6289 72.4609 -67.4805 72.4609 -64.5508 C 72.4609 -62.9883 73.0469 -61.8164 73.9746 -60.8887 L 87.0117 -48.1445 L 95.3125 -41.0645 L 84.3262 -41.5039 L 39.4531 -41.5039 L 28.5156 -41.0645 L 36.8164 -48.1445 L 49.8047 -60.8887 C 50.7812 -61.8164 51.3672 -62.9883 51.3672 -64.5508 C 51.3672 -67.4805 49.3164 -69.6289 46.1914 -69.6289 C 44.873 -69.6289 43.457 -69.043 42.4316 -68.0176 L 14.1113 -40.1855 C 13.0371 -39.1113 12.4512 -37.6953 12.4512 -36.2793 Z"/>
  </g>
  <g id="Regular-M" transform="matrix(1 0 0 1 1389.3 1126)">
   <path d="M 12.4512 -36.1816 C 12.4512 -34.9609 12.9395 -33.8379 13.916 -32.9102 L 42.334 -4.98047 C 43.1641 -4.15039 44.4336 -3.66211 45.5078 -3.66211 C 48.0957 -3.66211 49.8047 -5.41992 49.8047 -7.95898 C 49.8047 -9.22852 49.4141 -10.1562 48.6328 -10.9375 L 34.8633 -24.4141 L 25.6836 -32.2754 L 37.0605 -31.7871 L 84.082 -31.7871 L 95.4102 -32.2754 L 86.2793 -24.4141 L 72.4609 -10.9375 C 71.6797 -10.1562 71.2402 -9.22852 71.2402 -7.95898 C 71.2402 -5.41992 72.998 -3.66211 75.5859 -3.66211 C 76.6602 -3.66211 77.9297 -4.15039 78.7598 -4.98047 L 107.178 -32.9102 C 108.154 -33.8379 108.643 -34.9609 108.643 -36.1816 C 108.643 -37.3535 108.154 -38.4766 107.178 -39.4531 L 78.7598 -67.334 C 77.9297 -68.1641 76.6602 -68.7012 75.5859 -68.7012 C 72.998 -68.7012 71.2891 -66.8945 71.2891 -64.3555 C 71.2891 -63.1348 71.6797 -62.1582 72.4609 -61.377 L 86.2793 -47.9492 L 95.4102 -40.0391 L 84.082 -40.5273 L 37.0605 -40.5273 L 25.7324 -40.0391 L 34.8633 -47.9492 L 48.6328 -61.377 C 49.4141 -62.1582 49.8535 -63.1348 49.8535 -64.3555 C 49.8535 -66.8945 48.0957 -68.7012 45.5078 -68.7012 C 44.4336 -68.7012 43.1641 -68.1641 42.334 -67.334 L 13.916 -39.4531 C 12.9395 -38.4766 12.4512 -37.3535 12.4512 -36.1816 Z"/>
  </g>
  <g id="Light-M" transform="matrix(1 0 0 1 1093.64 1126)">
   <path d="M 12.4512 -36.2793 C 12.4512 -35.4004 12.793 -34.5215 13.5254 -33.8379 L 42.0898 -5.56641 C 42.7246 -4.93164 43.6523 -4.54102 44.4824 -4.54102 C 46.4355 -4.54102 47.7539 -5.9082 47.7539 -7.76367 C 47.7539 -8.74023 47.4121 -9.52148 46.8262 -10.0586 L 32.0312 -24.6582 L 22.4609 -33.3496 L 33.4961 -33.0078 L 85.5469 -33.0078 L 96.5332 -33.3496 L 86.9629 -24.6582 L 72.1191 -10.0586 C 71.5332 -9.52148 71.2402 -8.74023 71.2402 -7.76367 C 71.2402 -5.9082 72.5098 -4.54102 74.5117 -4.54102 C 75.3418 -4.54102 76.2695 -4.93164 76.9043 -5.56641 L 105.469 -33.8379 C 106.201 -34.5215 106.543 -35.3516 106.543 -36.2793 C 106.543 -37.207 106.201 -38.0371 105.469 -38.7207 L 76.9043 -66.9922 C 76.2695 -67.627 75.3418 -68.0176 74.5117 -68.0176 C 72.5586 -68.0176 71.2402 -66.6504 71.2402 -64.7949 C 71.2402 -63.8184 71.5332 -63.0859 72.1191 -62.5 L 86.9629 -47.9004 L 96.5332 -39.209 L 85.5469 -39.5508 L 33.4961 -39.5508 L 22.5098 -39.209 L 32.0312 -47.9004 L 46.875 -62.5 C 47.4609 -63.0859 47.7539 -63.8184 47.7539 -64.7949 C 47.7539 -66.6504 46.4355 -68.0176 44.4824 -68.0176 C 43.6523 -68.0176 42.7246 -67.627 42.0898 -66.9922 L 13.5254 -38.7207 C 12.793 -38.0371 12.4512 -37.1582 12.4512 -36.2793 Z"/>
  </g>
  <g id="Thin-M" transform="matrix(1 0 0 1 798.317 1126)">
   <path d="M 12.4512 -36.4258 C 12.4512 -35.9375 12.6465 -35.4492 13.0371 -35.0586 L 41.7969 -6.29883 C 42.1387 -5.9082 42.5781 -5.71289 43.0664 -5.71289 C 44.2383 -5.71289 44.9707 -6.54297 44.9707 -7.56836 C 44.9707 -8.10547 44.7754 -8.64258 44.4824 -8.93555 L 28.3203 -25.0488 L 18.2129 -34.7656 L 28.8086 -34.5703 L 87.4512 -34.5703 L 97.998 -34.7656 L 87.9395 -25.0488 L 71.6797 -8.93555 C 71.3867 -8.64258 71.1914 -8.10547 71.1914 -7.56836 C 71.1914 -6.54297 71.9238 -5.71289 73.0957 -5.71289 C 73.584 -5.71289 74.0723 -5.9082 74.4141 -6.29883 L 103.174 -35.0586 C 103.564 -35.4492 103.76 -35.8887 103.76 -36.4258 C 103.76 -36.9629 103.564 -37.4023 103.174 -37.793 L 74.4629 -66.5527 C 74.1211 -66.9434 73.6328 -67.1387 73.1445 -67.1387 C 71.9727 -67.1387 71.2402 -66.3086 71.2402 -65.2832 C 71.2402 -64.7461 71.3867 -64.2578 71.6797 -63.916 L 87.9395 -47.8027 L 97.998 -38.0859 L 87.4512 -38.2812 L 28.8086 -38.2812 L 18.2617 -38.0859 L 28.3203 -47.8027 L 44.5312 -63.916 C 44.8242 -64.2578 45.0195 -64.7461 45.0195 -65.2832 C 45.0195 -66.3086 44.2383 -67.1387 43.1152 -67.1387 C 42.5781 -67.1387 42.1387 -66.9434 41.7969 -66.5527 L 13.0371 -37.793 C 12.6465 -37.4023 12.4512 -36.9141 12.4512 -36.4258 Z"/>
  </g>
  <g id="Ultralight-M" transform="matrix(1 0 0 1 502.314 1126)">
   <path d="M 12.4512 -36.5234 C 12.4512 -36.2305 12.5488 -35.9375 12.793 -35.6934 L 41.6016 -6.68945 C 41.8457 -6.44531 41.9922 -6.34766 42.3828 -6.34766 C 43.0664 -6.34766 43.5547 -6.88477 43.5547 -7.4707 C 43.5547 -7.8125 43.457 -8.1543 43.2617 -8.34961 L 26.4648 -25.2441 L 16.0156 -35.498 L 26.416 -35.4004 L 88.4277 -35.4004 L 98.7793 -35.498 L 88.3789 -25.2441 L 71.4355 -8.34961 C 71.2891 -8.1543 71.1426 -7.8125 71.1426 -7.4707 C 71.1426 -6.88477 71.6309 -6.34766 72.3633 -6.34766 C 72.7051 -6.34766 72.9492 -6.44531 73.1934 -6.68945 L 102.002 -35.6934 C 102.197 -35.9375 102.344 -36.1328 102.344 -36.5234 C 102.344 -36.8652 102.197 -37.1094 102.002 -37.3535 L 73.2422 -66.3574 C 72.998 -66.6016 72.7539 -66.6992 72.4121 -66.6992 C 71.6797 -66.6992 71.2402 -66.1621 71.2402 -65.5762 C 71.2402 -65.2344 71.2891 -64.8438 71.4355 -64.6973 L 88.3789 -47.8027 L 98.7793 -37.5 L 88.4277 -37.6465 L 26.416 -37.6465 L 16.0645 -37.5 L 26.4648 -47.8027 L 43.3105 -64.6973 C 43.5059 -64.8438 43.6035 -65.2344 43.6035 -65.5762 C 43.6035 -66.1621 43.0664 -66.6992 42.4316 -66.6992 C 41.9922 -66.6992 41.8457 -66.6016 41.6016 -66.3574 L 12.793 -37.3535 C 12.5488 -37.1094 12.4512 -36.8164 12.4512 -36.5234 Z"/>
  </g>
  <g id="Black-S" transform="matrix(1 0 0 1 2880.18 696)">
   <path d="M 9.76562 -36.377 C 9.76562 -34.4238 10.5469 -32.3242 11.8164 -31.0547 L 33.4473 -9.42383 C 34.9121 -7.95898 36.7188 -7.17773 38.623 -7.17773 C 42.7734 -7.17773 45.6055 -10.1562 45.6055 -14.0137 C 45.6055 -16.3086 44.5312 -17.9199 43.1641 -19.2383 L 35.6934 -26.6113 L 32.1289 -29.4434 L 39.4043 -29.1016 L 67.041 -29.1016 L 74.3164 -29.4434 L 70.752 -26.6113 L 63.2812 -19.2383 C 61.9141 -17.9199 60.8398 -16.3086 60.8398 -14.0137 C 60.8398 -10.1562 63.6719 -7.17773 67.8223 -7.17773 C 69.7266 -7.17773 71.5332 -7.95898 72.998 -9.42383 L 94.6289 -31.0547 C 95.8984 -32.3242 96.6797 -34.4238 96.6797 -36.377 C 96.6797 -38.3301 95.8984 -40.4785 94.6289 -41.6992 L 72.998 -63.2812 C 71.5332 -64.7461 69.7266 -65.5273 67.8223 -65.5273 C 63.6719 -65.5273 60.8398 -62.5488 60.8398 -58.6914 C 60.8398 -56.3965 61.9141 -54.7852 63.2812 -53.4668 L 70.752 -46.1426 L 74.3164 -43.3105 L 67.041 -43.6523 L 39.4043 -43.6523 L 32.1289 -43.3105 L 35.6934 -46.1426 L 43.1641 -53.4668 C 44.5312 -54.7852 45.6055 -56.3965 45.6055 -58.6914 C 45.6055 -62.5488 42.7734 -65.5273 38.623 -65.5273 C 36.7188 -65.5273 34.9121 -64.7461 33.4473 -63.2812 L 11.8164 -41.6992 C 10.5469 -40.4785 9.76562 -38.3301 9.76562 -36.377 Z"/>
  </g>
  <g id="Heavy-S" transform="matrix(1 0 0 1 2584.71 696)">
   <path d="M 9.76562 -36.2793 C 9.76562 -34.5215 10.4492 -32.666 11.6211 -31.4941 L 33.3984 -9.86328 C 34.7168 -8.54492 36.377 -7.86133 38.0371 -7.86133 C 41.748 -7.86133 44.2871 -10.498 44.2871 -14.0137 C 44.2871 -16.0156 43.4082 -17.4316 42.1875 -18.6035 L 34.0332 -26.6113 L 29.6875 -30.127 L 37.3535 -29.7852 L 66.6016 -29.7852 L 74.2676 -30.127 L 69.9219 -26.6113 L 61.7676 -18.6035 C 60.5957 -17.4316 59.668 -16.0156 59.668 -14.0137 C 59.668 -10.498 62.207 -7.86133 65.918 -7.86133 C 67.5781 -7.86133 69.2383 -8.54492 70.5566 -9.86328 L 92.334 -31.4941 C 93.5059 -32.666 94.1895 -34.5215 94.1895 -36.2793 C 94.1895 -38.0371 93.5059 -39.8926 92.334 -41.0156 L 70.5566 -62.6465 C 69.2383 -63.916 67.5781 -64.6484 65.918 -64.6484 C 62.207 -64.6484 59.668 -61.9629 59.668 -58.4961 C 59.668 -56.4941 60.5957 -55.0293 61.7676 -53.8574 L 69.9219 -45.8984 L 74.2676 -42.3828 L 66.6016 -42.7734 L 37.3535 -42.7734 L 29.6875 -42.3828 L 34.0332 -45.8984 L 42.1875 -53.8574 C 43.4082 -55.0293 44.2871 -56.4941 44.2871 -58.4961 C 44.2871 -61.9629 41.748 -64.6484 38.0371 -64.6484 C 36.377 -64.6484 34.7168 -63.916 33.3984 -62.6465 L 11.6211 -41.0156 C 10.4492 -39.8926 9.76562 -37.9883 9.76562 -36.2793 Z"/>
  </g>
  <g id="Bold-S" transform="matrix(1 0 0 1 2289.39 696)">
   <path d="M 9.76562 -36.1328 C 9.76562 -34.6191 10.3516 -33.0566 11.4258 -31.9824 L 33.3984 -10.3516 C 34.4727 -9.22852 35.9863 -8.59375 37.4023 -8.59375 C 40.625 -8.59375 42.8223 -10.8887 42.8223 -13.9648 C 42.8223 -15.6738 42.0898 -16.8945 41.0645 -17.9199 L 32.1777 -26.6113 L 26.9043 -30.9082 L 35.0586 -30.5176 L 66.1133 -30.5176 L 74.2676 -30.9082 L 68.9941 -26.6113 L 60.1074 -17.9199 C 59.082 -16.8945 58.3496 -15.6738 58.3496 -13.9648 C 58.3496 -10.8887 60.5469 -8.59375 63.7695 -8.59375 C 65.1855 -8.59375 66.6992 -9.22852 67.8223 -10.3516 L 89.7461 -31.9824 C 90.8203 -33.0566 91.4062 -34.6191 91.4062 -36.1328 C 91.4062 -37.6465 90.8203 -39.2578 89.7461 -40.2832 L 67.8223 -61.9141 C 66.6992 -63.0371 65.1855 -63.623 63.7695 -63.623 C 60.5469 -63.623 58.3496 -61.377 58.3496 -58.3008 C 58.3496 -56.5918 59.082 -55.3223 60.1074 -54.3457 L 68.9941 -45.6543 L 74.2676 -41.3574 L 66.1133 -41.748 L 35.0586 -41.748 L 26.9043 -41.3574 L 32.1777 -45.6543 L 41.0645 -54.3457 C 42.0898 -55.3223 42.8223 -56.5918 42.8223 -58.3008 C 42.8223 -61.377 40.625 -63.623 37.4023 -63.623 C 35.9863 -63.623 34.4727 -63.0371 33.3984 -61.9141 L 11.4258 -40.2832 C 10.3516 -39.2578 9.76562 -37.6465 9.76562 -36.1328 Z"/>
  </g>
  <g id="Semibold-S" transform="matrix(1 0 0 1 1993.63 696)">
   <path d="M 9.76562 -36.0352 C 9.76562 -34.7168 10.3027 -33.3496 11.3281 -32.373 L 33.3496 -10.6934 C 34.3262 -9.7168 35.6934 -9.13086 36.9629 -9.13086 C 39.8438 -9.13086 41.8457 -11.1816 41.8457 -13.9648 C 41.8457 -15.4785 41.2109 -16.5527 40.332 -17.4316 L 30.9082 -26.6113 L 25.0488 -31.4453 L 33.4961 -31.0547 L 65.7715 -31.0547 L 74.2188 -31.4453 L 68.3594 -26.6113 L 58.9355 -17.4316 C 58.0566 -16.5527 57.4219 -15.4785 57.4219 -13.9648 C 57.4219 -11.1816 59.375 -9.13086 62.3047 -9.13086 C 63.5742 -9.13086 64.9414 -9.7168 65.918 -10.6934 L 87.9395 -32.373 C 88.9648 -33.3496 89.502 -34.7168 89.502 -36.0352 C 89.502 -37.4023 88.9648 -38.8184 87.9395 -39.7461 L 65.918 -61.4258 C 64.9414 -62.4023 63.5742 -62.9395 62.3047 -62.9395 C 59.375 -62.9395 57.4219 -60.9375 57.4219 -58.1543 C 57.4219 -56.6406 58.0566 -55.5664 58.9355 -54.6387 L 68.3594 -45.5078 L 74.2188 -40.6738 L 65.7715 -41.0645 L 33.4961 -41.0645 L 25.0488 -40.6738 L 30.9082 -45.5078 L 40.332 -54.6387 C 41.2109 -55.5664 41.8457 -56.6406 41.8457 -58.1543 C 41.8457 -60.9375 39.8438 -62.9395 36.9629 -62.9395 C 35.6934 -62.9395 34.3262 -62.4023 33.3496 -61.4258 L 11.3281 -39.7461 C 10.3027 -38.8184 9.76562 -37.4023 9.76562 -36.0352 Z"/>
  </g>
  <g id="Medium-S" transform="matrix(1 0 0 1 1697.65 696)">
   <path d="M 9.76562 -35.9863 C 9.76562 -34.7656 10.2539 -33.5449 11.2305 -32.6172 L 33.3496 -10.9375 C 34.2285 -10.0586 35.498 -9.52148 36.6211 -9.52148 C 39.2578 -9.52148 41.0645 -11.377 41.0645 -13.9648 C 41.0645 -15.2832 40.5762 -16.2598 39.7461 -17.0898 L 29.9316 -26.6113 L 23.584 -31.8848 L 32.3242 -31.4453 L 65.5273 -31.4453 L 74.2188 -31.8848 L 67.8711 -26.6113 L 58.0566 -17.0898 C 57.2754 -16.2598 56.7383 -15.2832 56.7383 -13.9648 C 56.7383 -11.377 58.5449 -9.52148 61.1816 -9.52148 C 62.3047 -9.52148 63.5742 -10.0586 64.4531 -10.9375 L 86.6211 -32.6172 C 87.5488 -33.5449 88.0371 -34.7656 88.0371 -35.9863 C 88.0371 -37.207 87.5488 -38.4766 86.6211 -39.3555 L 64.4531 -61.0352 C 63.5742 -61.9141 62.3047 -62.4512 61.1816 -62.4512 C 58.5449 -62.4512 56.7383 -60.5957 56.7383 -58.0078 C 56.7383 -56.6895 57.2754 -55.7129 58.0566 -54.8828 L 67.8711 -45.3613 L 74.2188 -40.1367 L 65.5273 -40.5273 L 32.3242 -40.5273 L 23.584 -40.1367 L 29.9316 -45.3613 L 39.7461 -54.8828 C 40.5762 -55.7129 41.0645 -56.6895 41.0645 -58.0078 C 41.0645 -60.5957 39.2578 -62.4512 36.6211 -62.4512 C 35.498 -62.4512 34.2285 -61.9141 33.3496 -61.0352 L 11.2305 -39.3555 C 10.2539 -38.4766 9.76562 -37.207 9.76562 -35.9863 Z"/>
  </g>
  <g id="Regular-S" transform="matrix(1 0 0 1 1401.9 696)">
   <path d="M 9.76562 -35.8887 C 9.76562 -34.8145 10.2051 -33.7891 11.084 -32.959 L 33.3008 -11.2793 C 34.082 -10.498 35.2051 -10.0586 36.1816 -10.0586 C 38.5254 -10.0586 40.0391 -11.6699 40.0391 -13.916 C 40.0391 -15.0879 39.6973 -15.918 38.9648 -16.6016 L 28.6621 -26.6113 L 21.7285 -32.373 L 30.7617 -31.9824 L 65.1855 -31.9824 L 74.2188 -32.373 L 67.2363 -26.6113 L 56.9336 -16.6016 C 56.25 -15.918 55.8594 -15.0879 55.8594 -13.916 C 55.8594 -11.6699 57.4219 -10.0586 59.7656 -10.0586 C 60.6934 -10.0586 61.8652 -10.498 62.5977 -11.2793 L 84.8145 -32.959 C 85.7422 -33.7891 86.1328 -34.8145 86.1328 -35.8887 C 86.1328 -36.9629 85.7422 -38.0371 84.8145 -38.8672 L 62.5977 -60.5469 C 61.8652 -61.2793 60.6934 -61.7676 59.7656 -61.7676 C 57.4219 -61.7676 55.8594 -60.1562 55.8594 -57.8613 C 55.8594 -56.7383 56.25 -55.9082 56.9336 -55.1758 L 67.2363 -45.2148 L 74.2188 -39.4043 L 65.1855 -39.8438 L 30.7617 -39.8438 L 21.7285 -39.4043 L 28.6621 -45.2148 L 38.9648 -55.1758 C 39.6973 -55.9082 40.0391 -56.7383 40.0391 -57.8613 C 40.0391 -60.1562 38.5254 -61.7676 36.1816 -61.7676 C 35.2051 -61.7676 34.082 -61.2793 33.3008 -60.5469 L 11.084 -38.8672 C 10.2051 -38.0371 9.76562 -36.9629 9.76562 -35.8887 Z"/>
  </g>
  <g id="Light-S" transform="matrix(1 0 0 1 1106.11 696)">
   <path d="M 9.76562 -35.9863 C 9.76562 -35.2051 10.1074 -34.4238 10.7422 -33.7891 L 33.1055 -11.7676 C 33.6426 -11.1816 34.5215 -10.8398 35.2539 -10.8398 C 37.0117 -10.8398 38.2324 -12.0605 38.2324 -13.7695 C 38.2324 -14.6484 37.9395 -15.332 37.4023 -15.8691 L 26.1719 -26.8555 L 18.8477 -33.3496 L 27.5879 -33.0078 L 66.4551 -33.0078 L 75.1953 -33.3496 L 67.8711 -26.8555 L 56.6406 -15.8691 C 56.1035 -15.332 55.8105 -14.6484 55.8105 -13.7695 C 55.8105 -12.0605 56.9824 -10.8398 58.7891 -10.8398 C 59.5215 -10.8398 60.4004 -11.1816 60.9375 -11.7676 L 83.3008 -33.7891 C 83.9844 -34.4238 84.2773 -35.1562 84.2773 -35.9863 C 84.2773 -36.8164 83.9844 -37.5977 83.3008 -38.2324 L 60.9863 -60.2539 C 60.4004 -60.8398 59.5215 -61.1816 58.7891 -61.1816 C 57.0312 -61.1816 55.8594 -59.9609 55.8594 -58.2031 C 55.8594 -57.373 56.1035 -56.6895 56.6406 -56.1523 L 67.8711 -45.166 L 75.1953 -38.6719 L 66.4551 -39.0137 L 27.5879 -39.0137 L 18.8965 -38.6719 L 26.1719 -45.166 L 37.4023 -56.1523 C 37.9395 -56.6895 38.2324 -57.373 38.2324 -58.2031 C 38.2324 -59.9609 37.0117 -61.1816 35.2539 -61.1816 C 34.5215 -61.1816 33.6426 -60.8398 33.1055 -60.2539 L 10.7422 -38.2324 C 10.1074 -37.5977 9.76562 -36.8164 9.76562 -35.9863 Z"/>
  </g>
  <g id="Thin-S" transform="matrix(1 0 0 1 810.621 696)">
   <path d="M 9.76562 -36.1328 C 9.76562 -35.6934 9.96094 -35.2051 10.3516 -34.8633 L 32.8125 -12.4023 C 33.1543 -12.0605 33.5449 -11.8652 34.0332 -11.8652 C 35.0586 -11.8652 35.791 -12.6465 35.791 -13.623 C 35.791 -14.1113 35.5957 -14.5508 35.3027 -14.8438 L 22.9004 -27.1973 L 15.0879 -34.6191 L 23.4863 -34.4238 L 68.1641 -34.4238 L 76.5137 -34.6191 L 68.7012 -27.1973 L 56.25 -14.8438 C 55.957 -14.5508 55.8105 -14.1113 55.8105 -13.623 C 55.8105 -12.6465 56.4941 -11.8652 57.5195 -11.8652 C 58.0078 -11.8652 58.4473 -12.0605 58.7891 -12.4023 L 81.25 -34.8633 C 81.6406 -35.2051 81.8359 -35.6445 81.8359 -36.1328 C 81.8359 -36.6699 81.6406 -37.0605 81.25 -37.4512 L 58.8379 -59.8633 C 58.4961 -60.2051 58.0566 -60.4004 57.5684 -60.4004 C 56.543 -60.4004 55.8105 -59.668 55.8105 -58.6914 C 55.8105 -58.1543 55.957 -57.7148 56.25 -57.4219 L 68.7012 -45.1172 L 76.5137 -37.6953 L 68.1641 -37.8906 L 23.4863 -37.8906 L 15.1367 -37.6953 L 22.9004 -45.1172 L 35.3516 -57.4219 C 35.6445 -57.7148 35.791 -58.1543 35.791 -58.6914 C 35.791 -59.668 35.0586 -60.4004 34.082 -60.4004 C 33.5449 -60.4004 33.1543 -60.2051 32.8125 -59.8633 L 10.3516 -37.4512 C 9.96094 -37.0605 9.76562 -36.6211 9.76562 -36.1328 Z"/>
  </g>
  <g id="Ultralight-S" transform="matrix(1 0 0 1 514.545 696)">
   <path d="M 9.76562 -36.2305 C 9.76562 -35.9375 9.86328 -35.6445 10.1074 -35.4004 L 32.666 -12.7441 C 32.8613 -12.5488 33.0566 -12.4023 33.3984 -12.4023 C 34.082 -12.4023 34.5215 -12.9395 34.5215 -13.4766 C 34.5215 -13.8184 34.4238 -14.1602 34.2285 -14.3066 L 21.2402 -27.3438 L 13.1348 -35.2539 L 21.3379 -35.1562 L 69.043 -35.1562 L 77.1973 -35.2539 L 69.1406 -27.3438 L 56.0547 -14.3066 C 55.8594 -14.1602 55.7617 -13.8184 55.7617 -13.4766 C 55.7617 -12.9395 56.2012 -12.4023 56.8848 -12.4023 C 57.2266 -12.4023 57.4707 -12.5488 57.666 -12.7441 L 80.2246 -35.4004 C 80.4688 -35.6445 80.5664 -35.8887 80.5664 -36.2305 C 80.5664 -36.5234 80.4688 -36.7676 80.2246 -37.0117 L 57.7148 -59.668 C 57.5195 -59.8633 57.2754 -60.0098 56.9336 -60.0098 C 56.25 -60.0098 55.8105 -59.5215 55.8105 -58.9355 C 55.8105 -58.5938 55.8594 -58.252 56.0547 -58.1055 L 69.1406 -45.0684 L 77.1973 -37.1582 L 69.043 -37.3047 L 21.3379 -37.3047 L 13.1836 -37.1582 L 21.2402 -45.0684 L 34.2773 -58.1055 C 34.4727 -58.252 34.5703 -58.5938 34.5703 -58.9355 C 34.5703 -59.5215 34.082 -60.0098 33.4473 -60.0098 C 33.0566 -60.0098 32.8613 -59.8633 32.666 -59.668 L 10.1074 -37.0117 C 9.86328 -36.7676 9.76562 -36.5234 9.76562 -36.2305 Z"/>
  </g>
 </g>
</svg>
